<svg id="Layer_1" data-name="Layer 1" xmlns="http://www.w3.org/2000/svg" xmlns:xlink="http://www.w3.org/1999/xlink" viewBox="0 0 80 80"><defs><style>.cls-1{fill:url(#linear-gradient);}.cls-2{fill:#fff;opacity:0.8;}.cls-3{fill:url(#linear-gradient-2);}.cls-4{fill:url(#linear-gradient-3);}.cls-5{fill:url(#linear-gradient-4);}.cls-6{fill:url(#linear-gradient-5);}</style><linearGradient id="linear-gradient" x1="39.1" y1="5.43" x2="39.1" y2="70.75" gradientUnits="userSpaceOnUse"><stop offset="0" stop-color="#60c6f1"/><stop offset="1" stop-color="#afacd6"/></linearGradient><linearGradient id="linear-gradient-2" x1="199.91" y1="-111.33" x2="212.15" y2="-111.33" gradientTransform="translate(-176.21 40.41) rotate(31.38)" gradientUnits="userSpaceOnUse"><stop offset="0" stop-color="#f7a599"/><stop offset="1" stop-color="#f37e99"/></linearGradient><linearGradient id="linear-gradient-3" x1="206.68" y1="-95.15" x2="206.68" y2="-93.36" gradientTransform="translate(-176.21 40.41) rotate(31.38)" gradientUnits="userSpaceOnUse"><stop offset="0" stop-color="#333"/><stop offset="1" stop-color="#1a1a1a"/></linearGradient><linearGradient id="linear-gradient-4" x1="206.59" y1="-101.89" x2="206.59" y2="-95.24" gradientTransform="translate(-176.21 40.41) rotate(31.38)" gradientUnits="userSpaceOnUse"><stop offset="0" stop-color="#ffd9a6"/><stop offset="1" stop-color="#ffc96b"/></linearGradient><linearGradient id="linear-gradient-5" x1="205.44" y1="-129.09" x2="205.56" y2="-123.61" gradientTransform="translate(-176.21 40.41) rotate(31.38)" gradientUnits="userSpaceOnUse"><stop offset="0" stop-color="#f280b0"/><stop offset="1" stop-color="#ef5181"/></linearGradient></defs><rect class="cls-1" x="14.29" y="5.43" width="49.63" height="69.13" rx="6.13"/><path class="cls-2" d="M53.1,23.76H24.83A3,3,0,0,1,22,20.62h0a3,3,0,0,1,2.84-3.14H53.1a3,3,0,0,1,2.84,3.14h0A3,3,0,0,1,53.1,23.76Z"/><path class="cls-2" d="M53.1,39H24.83A3,3,0,0,1,22,35.81h0a3,3,0,0,1,2.84-3.14H53.1a3,3,0,0,1,2.84,3.14h0A3,3,0,0,1,53.1,39Z"/><rect class="cls-2" x="21.38" y="47.86" width="26.94" height="6.28" rx="2.99"/><path class="cls-3" d="M68.7,38.49,64.13,35.4a2.57,2.57,0,0,0-3.74,1L48.21,58.52a2.61,2.61,0,0,0-.3,1.53l.46,7.61a1,1,0,0,0,1.35.92l6.62-2.82a2.27,2.27,0,0,0,1.09-1L69.61,42.63A3.2,3.2,0,0,0,68.7,38.49Z"/><path class="cls-4" d="M48.37,67.66a1,1,0,0,0,1.35.92l1.6-.68-3.14-2.12Z"/><path class="cls-5" d="M55.83,62.76c-1.34-.91-1.73,0-3.1-1s-.44-1.43-2.12-2.57a5.33,5.33,0,0,0-2.29-.9l-.11.19a2.61,2.61,0,0,0-.3,1.53l.27,5.73,3.14,2.12,5-2.14a2.27,2.27,0,0,0,1.09-1l.06-.11A6,6,0,0,0,55.83,62.76Z"/><path class="cls-6" d="M68.3,45l1.31-2.37a3.2,3.2,0,0,0-.91-4.14L64.13,35.4a2.57,2.57,0,0,0-3.74,1l-1.3,2.37Z"/></svg>